<svg width="216" height="41" viewBox="0 0 216 41" fill="none" xmlns="http://www.w3.org/2000/svg">
<rect width="216" height="41" fill="white"/>
<path fill-rule="evenodd" clip-rule="evenodd" d="M198.645 16.8865C194.931 16.8865 191.92 19.8985 191.92 23.6138C191.92 27.3292 194.931 30.3412 198.645 30.3412C202.358 30.3412 205.369 27.3292 205.369 23.6138C205.369 19.8985 202.358 16.8865 198.645 16.8865ZM188.4 23.6138C188.4 17.9537 192.987 13.3653 198.645 13.3653C204.302 13.3653 208.889 17.9537 208.889 23.6138C208.889 29.274 204.302 33.8624 198.645 33.8624C192.987 33.8624 188.4 29.274 188.4 23.6138Z" fill="black"/>
<path fill-rule="evenodd" clip-rule="evenodd" d="M169.552 13.8795C170.444 13.4914 171.48 13.8996 171.868 14.7911L177.516 27.7698L183.482 14.7596C183.888 13.8758 184.932 13.4881 185.816 13.8936C186.699 14.2991 187.087 15.3443 186.681 16.228L179.073 32.8181C178.783 33.4492 178.15 33.8512 177.456 33.8444C176.762 33.8376 176.137 33.4232 175.86 32.7865L168.641 16.1965C168.253 15.305 168.661 14.2676 169.552 13.8795Z" fill="black"/>
<path fill-rule="evenodd" clip-rule="evenodd" d="M164.823 15.5125C164.823 14.5401 164.035 13.7519 163.063 13.7519C162.091 13.7519 161.303 14.5401 161.303 15.5125V16.4467C159.589 15.0058 157.378 14.1378 154.964 14.1378C149.52 14.1378 145.106 18.5535 145.106 24.0006C145.106 29.4476 149.52 33.8633 154.964 33.8633C157.378 33.8633 159.589 32.9953 161.303 31.5544V32.1025C161.303 33.0749 162.091 33.8631 163.063 33.8631C164.035 33.8631 164.823 33.0749 164.823 32.1025V15.5125ZM148.625 24.0006C148.625 20.4983 151.463 17.6591 154.964 17.6591C158.465 17.6591 161.303 20.4983 161.303 24.0006C161.303 27.5029 158.465 30.342 154.964 30.342C151.463 30.342 148.625 27.5029 148.625 24.0006Z" fill="black"/>
<path fill-rule="evenodd" clip-rule="evenodd" d="M133.775 15.5124C133.775 14.5401 132.987 13.7518 132.015 13.7518C131.043 13.7518 130.255 14.5401 130.255 15.5124V32.1025C130.255 33.0748 131.043 33.8631 132.015 33.8631C132.987 33.8631 133.775 33.0748 133.775 32.1025L133.775 22.8222C133.782 22.7595 133.785 22.6957 133.785 22.6312C133.785 22.6319 133.785 22.6312 133.786 22.629C133.787 22.6087 133.801 22.4655 133.878 22.1876C133.956 21.9049 134.08 21.5524 134.255 21.165C134.609 20.3809 135.129 19.5434 135.787 18.8809C136.439 18.224 137.17 17.794 137.976 17.6664C138.764 17.5418 139.836 17.6715 141.254 18.5153C142.089 19.0117 143.167 18.7373 143.663 17.9025C144.16 17.0677 143.885 15.9886 143.051 15.4922C141.07 14.3137 139.176 13.9158 137.427 14.1924C135.955 14.4253 134.739 15.1122 133.775 15.9504V15.5124Z" fill="black"/>
<path fill-rule="evenodd" clip-rule="evenodd" d="M121.425 8.76061C121.425 7.78825 120.638 7 119.666 7C118.694 7 117.906 7.78825 117.906 8.76061V13.7518L115.926 13.7518C114.923 13.7518 114.11 14.5401 114.11 15.5124C114.11 16.4848 114.923 17.2731 115.926 17.2731H117.906V27.4726C117.906 29.1626 118.297 30.8019 119.38 32.0348C120.498 33.3078 122.1 33.863 123.908 33.863C124.88 33.863 125.668 33.0748 125.668 32.1024C125.668 31.13 124.88 30.3418 123.908 30.3418C122.823 30.3418 122.304 30.0289 122.024 29.7104C121.709 29.3518 121.425 28.6763 121.425 27.4726V17.2731H123.49C124.494 17.2731 125.307 16.4848 125.307 15.5124C125.307 14.5401 124.494 13.7518 123.49 13.7518L121.425 13.7518V8.76061Z" fill="black"/>
<path fill-rule="evenodd" clip-rule="evenodd" d="M83.7954 22.6875L83.7954 32.1021C83.7954 33.0744 84.5833 33.8627 85.5552 33.8627C86.5272 33.8627 87.3151 33.0744 87.3151 32.1021L87.3151 22.5772C87.3462 19.7164 89.2131 17.4657 91.5324 17.4657C92.9014 17.4657 93.8899 17.9534 94.5608 18.7339C95.248 19.5333 95.7379 20.8033 95.75 22.5826C95.7498 22.605 95.7497 22.6274 95.7497 22.6497C95.7497 22.6636 95.7499 22.6774 95.7502 22.6912L95.7502 32.1023C95.7502 33.0747 96.5381 33.863 97.51 33.863C98.482 33.863 99.2699 33.0745 99.2699 32.1021L99.2699 22.6497C99.2699 22.628 99.2699 22.6062 99.2698 22.5845C99.2977 19.7202 101.166 17.4657 103.487 17.4657C104.856 17.4657 105.845 17.9534 106.516 18.7339C107.211 19.5433 107.705 20.8352 107.705 22.6497V32.1023C107.705 33.0747 108.493 33.863 109.465 33.863C110.437 33.863 111.225 33.0745 111.225 32.1021L111.225 22.6497C111.225 20.2203 110.561 18.0398 109.184 16.4379C107.782 14.807 105.782 13.9444 103.487 13.9444C100.913 13.9444 98.9358 15.1838 97.6243 16.9398C97.4999 16.7669 97.3683 16.5994 97.2294 16.4379C95.8275 14.807 93.8271 13.9444 91.5324 13.9444C89.8667 13.9444 88.4506 14.4636 87.3032 15.306C87.2012 14.4307 86.4575 13.7514 85.5552 13.7514C84.5833 13.7514 83.7954 14.5397 83.7954 15.512L83.7954 22.5653C83.7951 22.5935 83.795 22.6216 83.795 22.6497C83.795 22.6623 83.7951 22.6749 83.7954 22.6875ZM109.465 32.1024L111.225 32.1021C111.225 32.1022 111.225 32.1024 109.465 32.1024ZM109.465 32.1024C107.705 32.1024 107.705 32.1023 107.705 32.1023L109.465 32.1024ZM97.51 32.1024C95.7502 32.1024 95.7502 32.1023 95.7502 32.1023L97.51 32.1024ZM99.2699 32.1021C99.2699 32.1022 99.2699 32.1024 97.51 32.1024L99.2699 32.1021Z" fill="black"/>
<path fill-rule="evenodd" clip-rule="evenodd" d="M69.7428 16.8865C66.029 16.8865 63.0184 19.8985 63.0184 23.6138C63.0184 27.3292 66.029 30.3412 69.7428 30.3412C73.4567 30.3412 76.4673 27.3292 76.4673 23.6138C76.4673 19.8985 73.4567 16.8865 69.7428 16.8865ZM59.4986 23.6138C59.4986 17.9537 64.0851 13.3653 69.7428 13.3653C75.4006 13.3653 79.987 17.9537 79.987 23.6138C79.987 29.274 75.4006 33.8624 69.7428 33.8624C64.0851 33.8624 59.4986 29.274 59.4986 23.6138Z" fill="black"/>
<path fill-rule="evenodd" clip-rule="evenodd" d="M50.4714 16.8865C46.7495 16.8865 43.7361 19.9006 43.7361 23.6138C43.7361 27.3271 46.7495 30.3411 50.4714 30.3411C51.8242 30.3411 53.0788 29.9446 54.1315 29.2624C54.9472 28.7337 56.0369 28.9667 56.5654 29.7827C57.0938 30.5988 56.8609 31.6889 56.0452 32.2176C54.4395 33.2583 52.5233 33.8624 50.4714 33.8624C44.8098 33.8624 40.2163 29.2761 40.2163 23.6138C40.2163 17.9516 44.8098 13.3653 50.4714 13.3653C52.5233 13.3653 54.4395 13.9694 56.0452 15.0101C56.8609 15.5387 57.0938 16.6289 56.5654 17.445C56.0369 18.261 54.9472 18.494 54.1315 17.9653C53.0788 17.283 51.8242 16.8865 50.4714 16.8865Z" fill="black"/>
<path d="M36.9216 7.19275C37.3992 7.14997 37.8624 7.37652 38.1187 7.78241C38.3754 8.18886 38.3796 8.70438 38.1297 9.11501L23.2615 33.5468C22.972 34.0225 22.4064 34.2546 21.8658 34.1242C21.3246 33.9936 20.9281 33.5285 20.8921 32.9717L20.2234 22.6494C20.1778 21.9455 20.7163 21.3446 21.4172 21.2997C22.118 21.2548 22.7291 21.7817 22.7747 22.4854L23.1818 28.7689L34.6352 9.94839L11.0609 12.0602L17.5022 18.6603L27.7706 12.7075C28.3777 12.3556 29.1596 12.556 29.5171 13.1616C29.876 13.7695 29.6676 14.5487 29.0583 14.9019L17.9251 21.356C17.4178 21.6501 16.7732 21.5633 16.3634 21.1434L7.36056 11.9185C7.0175 11.567 6.90795 11.05 7.08083 10.59C7.2535 10.1304 7.67579 9.81255 8.16403 9.76881L36.9216 7.19275Z" fill="#00B4EA"/>
</svg>
